<?xml version="1.0" standalone="no"?>
<!DOCTYPE svg PUBLIC "-//W3C//DTD SVG 20010904//EN"
 "http://www.w3.org/TR/2001/REC-SVG-20010904/DTD/svg10.dtd">
<svg version="1.0" xmlns="http://www.w3.org/2000/svg"
 width="1840.000000pt" height="1840.000000pt" viewBox="0 0 1840.000000 1840.000000"
 preserveAspectRatio="xMidYMid meet">
<metadata>
Created by potrace 1.14, written by Peter Selinger 2001-2017
</metadata>
<g transform="translate(0.000000,1840.000000) scale(0.100000,-0.100000)"
fill="#000000" stroke="none">
<path d="M16108 12532 c132 -89 180 -128 285 -234 106 -107 205 -255 186 -278
-2 -2 -78 -5 -169 -5 -138 -1 -171 -4 -203 -20 -131 -62 -133 -250 -4 -316 36
-19 60 -21 206 -23 141 -1 166 -3 165 -16 -1 -21 -26 -70 -36 -70 -4 0 -8 -5
-8 -10 0 -32 -122 -169 -240 -270 -36 -30 -67 -58 -70 -61 -3 -3 -15 -12 -28
-18 -13 -7 -32 -20 -43 -29 -11 -9 -47 -34 -81 -54 -34 -21 -60 -38 -57 -39 2
0 118 -2 257 -2 l252 -2 27 55 c33 68 90 125 197 198 67 46 282 158 309 161 4
0 20 7 35 15 51 26 438 151 497 160 6 1 16 5 23 9 6 5 12 6 12 3 0 -3 21 1 48
9 26 8 58 16 72 19 43 9 71 15 88 20 9 3 32 8 51 11 19 3 37 8 40 10 4 2 25 6
47 9 50 8 81 14 102 20 9 3 33 7 52 10 19 3 46 8 60 11 14 3 39 7 55 9 17 3
54 9 84 15 29 6 58 8 65 4 7 -4 8 -3 1 4 -9 9 -77 25 -170 38 -16 3 -41 7 -55
10 -14 3 -50 9 -80 15 -69 13 -83 16 -145 30 -27 6 -59 13 -70 15 -127 18
-544 137 -735 210 -153 58 -354 161 -433 223 -66 52 -147 145 -158 182 l-12
40 -260 0 -259 0 100 -68z"/>
<path d="M5059 12066 c-2 -2 -40 -7 -84 -11 -44 -4 -84 -9 -88 -12 -5 -3 -25
-7 -45 -9 -45 -4 -53 -5 -183 -39 -57 -15 -110 -32 -116 -38 -7 -5 -13 -7 -13
-3 0 7 -72 -19 -112 -40 -14 -8 -31 -14 -38 -14 -16 0 -204 -92 -208 -102 -2
-4 -9 -8 -16 -8 -26 0 -270 -166 -374 -254 -60 -51 -194 -187 -253 -257 -88
-104 -96 -114 -110 -141 -6 -13 -15 -25 -19 -28 -11 -8 -61 -90 -55 -90 3 0
29 17 58 38 62 45 269 182 312 206 17 9 57 33 90 52 181 105 444 219 630 273
199 58 -44 54 3431 55 l3180 2 36 39 c20 22 47 52 59 66 28 30 146 162 172
193 10 12 35 39 56 61 20 22 41 46 45 53 6 10 -623 12 -3172 12 -1748 0 -3181
-2 -3183 -4z"/>
<path d="M11623 12056 c-7 -12 -29 -38 -141 -162 -21 -22 -68 -76 -107 -119
-38 -43 -78 -87 -87 -97 -10 -10 -18 -21 -18 -26 0 -4 83 -7 184 -7 l184 1 28
30 c16 17 49 53 72 80 93 104 159 178 214 237 32 34 58 65 58 70 0 4 -85 7
-190 7 -150 0 -191 -3 -197 -14z"/>
<path d="M12252 12043 c-12 -15 -48 -55 -80 -91 -31 -36 -65 -74 -74 -85 -15
-16 -56 -62 -165 -185 -13 -14 -23 -28 -23 -31 0 -3 82 -6 183 -6 169 0 185 2
204 20 11 11 62 67 113 125 52 58 99 110 104 116 33 33 131 148 134 155 2 5
-81 9 -185 8 l-188 0 -23 -26z"/>
<path d="M12990 12063 c0 -5 -22 -31 -48 -59 -26 -27 -74 -81 -107 -119 -33
-37 -69 -78 -80 -89 -11 -12 -45 -50 -77 -86 l-56 -65 189 0 190 0 55 60 c30
33 64 71 76 85 45 52 155 176 195 219 24 25 43 49 43 54 0 4 -85 7 -190 7
-104 0 -190 -3 -190 -7z"/>
<path d="M13917 12044 c-12 -15 -33 -39 -47 -54 -25 -27 -138 -154 -169 -188
-9 -10 -40 -46 -69 -80 -30 -33 -55 -64 -55 -68 -1 -5 79 -9 178 -9 l180 -1
45 46 c25 26 61 64 80 86 115 129 196 220 200 224 3 3 18 20 34 38 l30 32
-192 0 -192 0 -23 -26z"/>
<path d="M15139 12033 c-19 -21 -72 -81 -119 -133 -111 -125 -121 -136 -174
-195 -25 -27 -41 -52 -36 -55 13 -8 342 -5 368 4 12 4 22 11 22 14 0 4 21 30
46 57 25 28 63 70 85 95 120 136 147 167 182 203 20 22 37 41 37 43 0 2 -85 4
-188 4 l-189 0 -34 -37z"/>
<path d="M26 11610 c-13 -5 0 -38 106 -275 12 -27 23 -52 23 -55 3 -9 36 -84
66 -148 16 -34 29 -64 29 -67 0 -2 14 -34 30 -70 17 -36 30 -68 30 -71 0 -3
13 -33 29 -67 16 -34 50 -111 76 -172 26 -60 56 -128 65 -150 10 -22 41 -94
70 -160 28 -66 60 -138 70 -160 10 -22 32 -74 50 -115 18 -41 40 -93 50 -115
10 -22 46 -105 80 -185 34 -80 72 -165 83 -190 12 -25 22 -47 22 -50 1 -3 9
-22 18 -42 10 -21 24 -55 34 -75 9 -21 17 -40 17 -43 2 -5 12 -29 67 -148 16
-35 29 -66 29 -71 0 -4 14 -35 30 -69 17 -34 30 -64 30 -67 0 -2 14 -34 30
-70 17 -36 30 -68 30 -70 0 -2 11 -28 24 -57 13 -29 41 -91 61 -138 53 -122
104 -237 131 -298 13 -29 24 -55 24 -57 0 -2 13 -32 29 -67 27 -60 123 -280
191 -438 18 -41 42 -97 55 -125 12 -27 44 -99 70 -160 26 -60 55 -128 65 -150
10 -22 64 -146 120 -275 56 -129 108 -248 115 -265 8 -16 107 -244 220 -505
241 -553 244 -560 251 -560 3 0 22 37 43 83 21 45 65 136 97 202 32 66 58 122
59 125 1 3 29 63 63 133 123 252 155 322 154 330 -1 4 2 7 7 7 5 0 12 10 16
23 4 12 8 24 9 27 4 11 57 122 132 275 43 88 78 162 79 165 4 16 31 66 38 71
5 3 8 9 8 13 -2 9 59 139 236 506 36 74 90 187 120 250 109 227 171 357 228
475 143 298 185 388 185 396 0 5 4 9 10 9 5 0 9 3 8 8 -1 4 3 18 9 32 6 14 11
27 11 30 0 4 13 29 74 139 21 37 105 162 135 199 61 79 204 224 268 273 17 13
36 29 43 36 7 7 26 20 42 30 17 9 30 21 30 25 0 4 7 8 15 8 8 0 15 5 15 10 0
6 4 10 9 10 9 0 118 63 138 80 7 5 16 10 21 10 5 0 36 14 70 30 34 17 68 30
75 30 7 0 17 4 22 9 8 8 162 59 200 67 181 37 213 43 305 51 36 3 1884 6 4107
7 l4042 2 78 84 c43 46 94 100 113 121 19 20 76 81 125 134 50 53 108 116 130
139 22 24 85 91 140 150 55 59 118 127 140 150 22 24 53 56 69 73 l28 31
-4538 1 c-2497 1 -4566 3 -4599 6 -68 5 -213 6 -265 1 -133 -13 -170 -18 -289
-42 -28 -6 -133 -32 -176 -44 -31 -8 -139 -46 -165 -57 -8 -3 -21 -7 -29 -9
-33 -7 -283 -137 -366 -191 -164 -108 -277 -205 -471 -407 -11 -12 -55 -67
-97 -121 -43 -55 -82 -106 -88 -113 -18 -21 -179 -352 -179 -367 0 -5 -7 -16
-16 -26 -8 -9 -16 -23 -18 -31 -1 -7 -23 -56 -49 -109 -26 -52 -47 -101 -47
-107 0 -7 -4 -12 -10 -12 -5 0 -10 -9 -10 -20 0 -11 -4 -20 -10 -20 -5 0 -9
-3 -8 -7 1 -5 -16 -44 -37 -88 -21 -44 -39 -82 -40 -85 -1 -3 -26 -57 -57
-120 -31 -63 -93 -191 -137 -285 -172 -358 -175 -365 -187 -352 -5 7 -21 39
-34 72 -13 33 -33 83 -46 110 -12 28 -34 79 -49 115 -15 36 -34 80 -41 97 -8
18 -14 36 -15 40 0 5 -6 17 -12 28 -7 11 -26 52 -42 90 -15 39 -37 90 -48 115
-11 25 -47 108 -79 185 -33 77 -68 158 -78 180 -10 22 -50 117 -89 210 -40 94
-78 184 -85 200 -8 17 -19 41 -24 55 -6 14 -25 57 -42 95 -18 39 -33 75 -34
80 -1 6 -9 26 -18 45 -9 19 -48 112 -88 205 -40 94 -80 188 -90 210 -55 120
-154 361 -152 368 1 4 -3 7 -8 7 -5 0 -9 3 -8 8 1 4 -8 30 -21 57 -12 28 -29
68 -38 90 -8 22 -23 56 -33 75 -10 19 -21 46 -25 60 -4 14 -21 53 -36 87 -16
33 -29 64 -29 67 0 3 -11 29 -25 58 -49 106 -105 242 -105 255 0 7 -4 13 -10
13 -5 0 -10 8 -10 18 0 10 -6 27 -14 37 -13 18 -37 19 -575 19 -309 1 -568 -1
-575 -4z"/>
<path d="M8774 9031 c-2 -2 -4 -97 -4 -211 l0 -206 208 1 207 0 3 208 c2 162
0 207 -10 208 -43 3 -400 3 -404 0z"/>
<path d="M9510 9030 c-1 -3 -1 -90 -2 -195 l-1 -190 29 1 c30 2 100 10 169 19
22 3 55 8 73 10 17 3 47 7 65 10 17 2 52 7 77 10 25 3 56 8 70 10 14 2 45 6
70 9 25 3 56 8 70 10 14 2 52 7 85 11 32 4 67 8 76 10 9 2 40 6 69 10 29 4 60
8 69 10 9 1 41 6 72 9 31 4 65 8 76 10 11 3 44 7 74 10 30 3 65 8 79 11 14 3
45 8 70 10 46 5 88 10 150 19 19 3 55 8 80 11 25 4 56 8 70 10 14 2 45 7 70
10 25 3 56 8 70 10 14 2 50 7 80 9 30 3 69 8 85 11 17 3 41 7 55 10 14 2 52 7
85 11 33 3 69 8 80 11 11 2 36 6 55 8 19 2 55 6 80 10 25 4 61 8 80 10 19 2
49 6 65 9 30 5 68 10 160 22 28 3 57 8 66 9 9 2 40 6 70 10 30 4 55 8 57 9 1
2 -87 3 -195 4 -522 3 -2171 13 -2351 15 -111 1 -202 0 -202 -3z"/>
<path d="M6667 8422 l-57 -3 2 -216 3 -217 595 -1 c327 -1 604 -5 615 -9 104
-40 169 -97 211 -182 24 -50 28 -70 28 -140 0 -68 -5 -90 -28 -137 -35 -73
-90 -128 -163 -163 l-58 -29 -583 -2 c-320 0 -588 -3 -595 -6 -10 -4 -12 -127
-11 -568 1 -310 2 -567 3 -570 0 -3 89 -6 196 -5 l195 0 1 105 c1 195 1 246
-1 256 -1 6 -2 15 -1 20 3 14 3 209 0 221 -1 5 0 14 1 19 1 6 1 34 0 63 l-1
52 209 0 209 0 34 -41 c19 -22 46 -54 62 -71 15 -17 46 -53 70 -81 23 -27 47
-55 52 -61 6 -6 39 -45 75 -86 36 -41 70 -80 75 -86 6 -6 30 -35 55 -64 25
-29 50 -58 55 -64 6 -6 35 -40 65 -75 30 -36 63 -73 73 -83 9 -10 17 -22 17
-28 0 -5 32 -8 75 -7 41 1 75 -1 75 -5 0 -4 10 -4 23 1 12 5 31 5 42 1 11 -4
32 -4 47 1 14 4 29 5 31 3 3 -3 38 -5 78 -4 41 0 92 0 113 0 43 -1 42 1 -9 56
-11 11 -36 40 -55 64 -19 23 -46 54 -60 69 -14 14 -48 53 -75 85 -28 33 -61
72 -75 87 -14 14 -48 53 -76 85 -156 180 -252 290 -290 333 l-32 35 91 34 c49
19 95 38 101 43 6 5 38 27 71 48 69 45 129 100 165 151 13 19 27 37 31 40 10
7 60 110 71 145 26 82 37 160 36 265 -1 63 -5 126 -8 140 -35 123 -55 180 -62
180 -4 0 -8 7 -8 14 0 44 -133 192 -221 248 -64 41 -183 98 -204 98 -8 0 -34
7 -57 14 -67 23 -127 26 -553 25 -220 0 -407 0 -415 0 -58 3 -143 1 -147 -3
-3 -3 -15 -2 -27 2 -11 4 -47 6 -79 4z"/>
<path d="M4592 8198 l3 -213 830 0 c457 0 837 1 846 3 13 3 15 31 16 213 l0
209 -849 0 -848 0 2 -212z"/>
<path d="M10370 8398 c-1 -20 -1 -392 -1 -403 1 -6 118 -10 331 -9 l330 1 0
-562 c-1 -597 -2 -615 -50 -708 -67 -128 -235 -204 -453 -206 -75 0 -180 12
-217 26 -8 3 -21 7 -29 9 -8 1 -46 19 -85 38 -155 77 -250 217 -273 399 -4 34
-7 72 -6 85 2 25 22 23 -223 24 -94 1 -176 -2 -182 -6 -6 -3 -8 -18 -6 -34 2
-15 6 -47 8 -72 11 -123 52 -254 117 -380 109 -209 323 -379 549 -436 138 -34
237 -46 375 -47 83 0 222 10 234 17 3 2 23 7 44 10 21 3 47 11 58 16 10 6 19
8 19 5 0 -3 13 1 30 10 16 8 32 15 35 15 7 -1 119 54 125 61 3 3 13 10 22 15
45 24 143 124 186 189 41 61 111 205 116 240 1 5 5 16 9 23 5 6 6 12 4 12 -2
0 2 30 9 67 9 50 12 264 13 840 l1 773 -545 0 c-429 0 -545 -3 -545 -12z"/>
<path d="M11845 8200 c0 -180 2 -210 15 -211 8 -1 389 -2 847 -3 l832 -1 3
108 c2 60 1 110 -1 113 -2 2 -3 48 -2 104 l2 100 -848 0 -848 0 0 -210z"/>
<path d="M13879 8403 c-1 -5 -2 -99 -3 -210 -1 -197 -1 -203 19 -204 11 -1
166 -2 345 -3 l324 -1 1 -905 0 -905 205 -1 c113 -1 207 2 210 6 3 5 4 406 4
892 -1 485 0 890 2 899 4 14 41 16 337 15 182 -1 339 2 349 6 14 7 16 31 16
213 l-1 205 -904 0 c-496 0 -904 -3 -904 -7z"/>
<path d="M8770 7285 l0 -1114 208 2 207 2 3 1111 2 1110 -210 1 -210 1 0
-1113z"/>
<path d="M4600 7492 c-7 -3 -10 -220 -10 -661 l1 -658 827 -1 c455 0 836 1
848 3 21 5 21 9 20 212 l-1 208 -638 0 -637 0 0 237 0 238 638 2 637 3 0 210
0 210 -837 0 c-461 0 -842 -1 -848 -3z"/>
<path d="M11845 6834 l0 -661 845 1 845 1 2 211 2 211 -630 -1 c-410 -1 -633
3 -638 9 -6 8 -8 443 -2 465 0 3 286 4 635 2 l635 -2 1 212 1 213 -848 0 -848
0 0 -661z"/>
</g>
</svg>
