<?xml version="1.0" standalone="no"?>
<!DOCTYPE svg PUBLIC "-//W3C//DTD SVG 20010904//EN"
 "http://www.w3.org/TR/2001/REC-SVG-20010904/DTD/svg10.dtd">
<svg version="1.0" xmlns="http://www.w3.org/2000/svg"
 width="500.000000pt" height="500.000000pt" viewBox="0 0 500.000000 500.000000"
 preserveAspectRatio="xMidYMid meet">
<metadata>
Created by potrace 1.14, written by Peter Selinger 2001-2017
</metadata>
<g transform="translate(0.000000,500.000000) scale(0.100000,-0.100000)"
fill="#000000" stroke="none">
<path d="M1957 3326 c15 -5 36 -16 47 -25 17 -15 18 -31 11 -286 -8 -298 -12
-318 -68 -334 -25 -7 -9 -9 73 -10 94 0 101 1 70 12 -19 7 -40 23 -47 37 -14
27 -15 172 -4 393 l6 128 130 -278 c72 -152 134 -277 139 -278 6 0 60 115 120
255 61 141 116 267 122 280 10 21 13 7 19 -88 l8 -112 30 40 c29 41 30 43 23
126 -8 92 5 133 42 135 9 1 -3 5 -28 9 -25 4 -50 5 -56 3 -6 -2 -64 -127 -130
-278 -65 -150 -122 -271 -126 -267 -4 4 -62 122 -128 262 -67 140 -128 262
-136 270 -9 9 -36 14 -80 15 -52 0 -60 -1 -37 -9z"/>
<path d="M2708 3333 c7 -3 16 -2 19 1 4 3 -2 6 -13 5 -11 0 -14 -3 -6 -6z"/>
<path d="M2447 2710 c-185 -263 -337 -481 -337 -484 0 -26 59 52 347 462 374
531 346 489 335 496 -4 2 -160 -211 -345 -474z"/>
<path d="M2838 2813 c6 -2 18 -2 25 0 6 3 1 5 -13 5 -14 0 -19 -2 -12 -5z"/>
<path d="M3048 2813 c6 -2 18 -2 25 0 6 3 1 5 -13 5 -14 0 -19 -2 -12 -5z"/>
<path d="M2898 2794 c21 -14 22 -22 22 -150 l0 -134 -205 0 -205 0 0 67 0 66
-32 -44 -33 -44 -3 -185 c-2 -102 -7 -189 -12 -194 -5 -5 -26 -12 -47 -16 -24
-5 11 -7 92 -7 83 0 116 2 91 7 -21 4 -42 13 -47 21 -5 8 -9 80 -9 162 l0 147
205 0 205 0 0 -147 c0 -82 -4 -154 -9 -162 -5 -8 -26 -17 -47 -21 -25 -5 8 -7
91 -7 83 0 116 2 91 7 -21 4 -42 13 -47 21 -5 8 -9 145 -9 306 0 290 0 292 22
307 21 15 18 16 -57 16 -75 0 -78 -1 -57 -16z"/>
<path d="M640 1835 c0 -50 4 -85 10 -85 6 0 10 25 10 55 0 30 3 55 8 55 4 0
18 -20 32 -45 14 -25 28 -45 31 -45 4 0 20 21 36 48 l28 47 3 -57 c5 -90 22
-68 22 27 0 47 -4 85 -9 85 -5 0 -25 -25 -44 -57 l-35 -56 -26 42 c-15 23 -30
49 -33 57 -3 8 -11 14 -19 14 -11 0 -14 -19 -14 -85z"/>
<path d="M960 1848 c-45 -100 -44 -98 -27 -98 9 0 19 9 22 20 5 16 15 20 55
20 40 0 50 -4 55 -20 3 -11 13 -20 21 -20 10 0 8 13 -12 58 -14 31 -30 69 -36
85 -18 48 -42 34 -78 -45z m65 12 c21 -41 19 -50 -15 -50 -20 0 -30 5 -30 15
0 14 20 65 26 65 2 0 10 -13 19 -30z"/>
<path d="M1170 1910 c0 -5 14 -10 30 -10 l30 0 0 -75 c0 -60 3 -75 15 -75 12
0 15 15 15 75 0 73 1 75 25 75 14 0 25 5 25 10 0 6 -30 10 -70 10 -40 0 -70
-4 -70 -10z"/>
<path d="M1380 1910 c0 -5 14 -10 30 -10 l30 0 0 -75 c0 -60 3 -75 15 -75 12
0 15 15 15 75 l0 75 30 0 c17 0 30 5 30 10 0 6 -32 10 -75 10 -43 0 -75 -4
-75 -10z"/>
<path d="M1620 1835 c0 -69 3 -85 15 -85 11 0 15 11 15 40 l0 40 45 0 45 0 0
-40 c0 -29 4 -40 15 -40 12 0 15 16 15 85 0 69 -3 85 -15 85 -10 0 -15 -11
-15 -35 0 -35 0 -35 -45 -35 -45 0 -45 0 -45 35 0 24 -5 35 -15 35 -12 0 -15
-16 -15 -85z"/>
<path d="M1911 1868 c-12 -29 -29 -68 -37 -85 -12 -29 -12 -33 0 -33 8 0 18 9
21 20 5 16 15 20 55 20 40 0 50 -4 55 -20 3 -11 13 -20 22 -20 8 0 13 6 10 13
-43 104 -72 157 -87 157 -10 0 -25 -20 -39 -52z m58 -9 c16 -46 14 -49 -19
-49 -34 0 -34 1 -18 47 15 41 23 42 37 2z"/>
<path d="M2140 1836 c0 -96 17 -118 22 -28 l3 57 30 -47 c16 -27 32 -48 35
-48 3 0 16 20 30 45 14 25 28 45 32 45 5 0 8 -25 8 -55 0 -30 5 -55 10 -55 6
0 10 35 10 85 0 103 -12 109 -55 30 -16 -30 -32 -55 -35 -55 -3 0 -18 24 -35
52 -46 79 -55 74 -55 -26z"/>
<path d="M2440 1835 c0 -50 4 -85 10 -85 6 0 10 25 10 55 0 30 3 55 8 55 4 0
18 -20 32 -45 14 -25 28 -45 31 -45 4 0 20 21 36 48 l28 47 3 -57 c5 -90 22
-68 22 27 0 47 -4 85 -9 85 -5 0 -25 -25 -44 -57 l-35 -56 -26 42 c-15 23 -30
49 -33 57 -3 8 -11 14 -19 14 -11 0 -14 -19 -14 -85z"/>
<path d="M2755 1895 c-63 -62 2 -163 90 -141 65 17 87 94 40 141 -18 19 -35
25 -65 25 -30 0 -47 -6 -65 -25z m109 -14 c26 -29 18 -82 -16 -101 -25 -13
-31 -13 -55 0 -56 31 -35 120 27 120 15 0 35 -9 44 -19z"/>
<path d="M3010 1835 c0 -68 3 -85 15 -85 10 0 15 16 17 61 l3 62 48 -62 c27
-33 53 -61 58 -61 5 0 9 38 9 85 0 50 -4 85 -10 85 -5 0 -10 -25 -10 -55 0
-30 -3 -55 -7 -54 -5 0 -27 25 -51 55 -62 78 -72 73 -72 -31z"/>
<path d="M3280 1835 l0 -85 45 0 c59 0 103 23 112 58 18 70 -20 112 -103 112
l-54 0 0 -85z m120 45 c40 -40 12 -96 -52 -107 l-38 -6 0 67 0 66 35 0 c22 0
43 -8 55 -20z"/>
<path d="M3691 1903 c-12 -10 -24 -35 -28 -55 -5 -32 -1 -41 25 -68 20 -19 40
-30 59 -30 35 1 80 24 65 34 -7 4 -21 2 -32 -4 -61 -33 -122 58 -70 105 15 14
29 16 61 11 31 -5 40 -3 37 6 -7 21 -91 22 -117 1z"/>
<path d="M3938 1906 c-24 -18 -39 -63 -32 -92 3 -13 18 -33 31 -44 52 -41 134
-13 148 49 7 33 -15 85 -40 95 -28 10 -89 6 -107 -8z m102 -26 c28 -28 25 -64
-6 -89 -15 -12 -32 -21 -39 -21 -24 0 -65 41 -65 66 0 31 33 64 65 64 14 0 34
-9 45 -20z"/>
<path d="M4190 1835 c0 -50 4 -85 10 -85 6 0 10 25 10 55 0 30 3 55 8 55 4 0
18 -20 32 -45 14 -25 28 -45 31 -45 4 0 20 21 36 48 l28 47 3 -57 c5 -90 22
-68 22 27 0 47 -4 85 -9 85 -5 0 -25 -25 -44 -57 l-35 -56 -26 42 c-15 23 -30
49 -33 57 -3 8 -11 14 -19 14 -11 0 -14 -19 -14 -85z"/>
<path d="M3546 1783 c-12 -12 -6 -33 9 -33 8 0 15 6 15 14 0 17 -14 28 -24 19z"/>
<path d="M1959 1563 c-5 -14 -12 -47 -15 -72 -2 -25 -7 -59 -9 -76 -4 -28 -4
-28 4 -5 5 14 12 42 16 63 3 20 11 37 18 37 9 0 9 2 0 8 -9 6 -10 17 -4 40 12
39 4 42 -10 5z"/>
<path d="M2826 1579 c-2 -8 -7 -32 -11 -54 -3 -22 -9 -50 -12 -62 -3 -13 -1
-23 4 -23 5 0 14 33 20 73 9 68 9 97 -1 66z"/>
<path d="M3200 1590 c-5 -16 -10 -52 -15 -100 -5 -54 -4 -53 10 15 8 39 13 75
11 80 -3 6 -5 8 -6 5z"/>
<path d="M2975 1509 c-14 -62 -22 -119 -15 -119 8 0 32 132 25 138 -2 2 -7 -6
-10 -19z"/>
<path d="M1597 1513 c-3 -5 -7 -35 -10 -68 -4 -33 -4 -53 -1 -45 3 8 8 22 11
30 4 8 5 19 4 24 -1 6 0 20 4 33 7 30 35 30 35 1 1 -21 2 -21 11 -5 5 9 7 22
4 27 -7 12 -52 14 -58 3z"/>
<path d="M1718 1480 c-4 -47 7 -54 16 -9 8 42 8 49 -3 49 -5 0 -11 -18 -13
-40z"/>
<path d="M1755 1510 c3 -5 8 -10 11 -10 2 0 4 5 4 10 0 6 -5 10 -11 10 -5 0
-7 -4 -4 -10z"/>
<path d="M1864 1485 c0 -21 3 -30 8 -22 10 16 10 44 0 51 -4 2 -8 -11 -8 -29z"/>
<path d="M2070 1509 c0 -5 5 -7 10 -4 6 3 10 8 10 11 0 2 -4 4 -10 4 -5 0 -10
-5 -10 -11z"/>
<path d="M2348 1486 c-7 -39 -4 -55 8 -44 3 3 4 23 2 44 l-3 39 -7 -39z"/>
<path d="M2470 1483 c0 -28 3 -34 10 -23 13 20 13 47 0 55 -6 4 -10 -9 -10
-32z"/>
<path d="M2553 1477 c-2 -31 0 -37 7 -22 11 25 12 65 3 65 -5 0 -9 -19 -10
-43z"/>
<path d="M2598 1479 c5 -47 7 -47 16 4 5 27 4 37 -6 37 -10 0 -12 -12 -10 -41z"/>
<path d="M2728 1479 c5 -47 7 -47 15 4 4 25 2 37 -6 37 -9 0 -11 -13 -9 -41z"/>
<path d="M3006 1512 c7 -4 14 -16 17 -27 4 -15 5 -14 6 8 1 20 -4 27 -16 27
-12 0 -14 -3 -7 -8z"/>
<path d="M3098 1486 c-7 -39 -4 -55 8 -44 3 3 4 23 2 44 l-3 39 -7 -39z"/>
<path d="M3305 1486 c0 -19 3 -32 8 -29 4 2 7 17 7 34 0 16 -3 29 -7 29 -5 0
-8 -15 -8 -34z"/>
<path d="M3386 1489 c-9 -45 -8 -49 12 -49 12 0 13 3 5 8 -9 6 -10 17 -4 40 5
18 6 32 2 32 -5 0 -11 -14 -15 -31z"/>
<path d="M1814 1484 c-4 -14 -2 -30 4 -36 7 -7 10 1 10 26 0 42 -5 46 -14 10z"/>
<path d="M2037 1503 c-4 -3 -7 -19 -7 -35 0 -20 5 -28 18 -28 13 0 14 2 3 9
-8 5 -12 19 -9 35 6 28 5 30 -5 19z"/>
<path d="M2140 1497 c0 -15 27 -43 34 -36 3 2 -4 15 -15 28 -13 16 -19 18 -19
8z"/>
<path d="M2240 1501 c0 -4 9 -16 20 -26 11 -10 20 -14 20 -9 0 5 -9 17 -20 27
-11 9 -20 13 -20 8z"/>
<path d="M2427 1503 c-9 -9 -9 -51 1 -56 4 -3 7 10 8 29 1 37 0 37 -9 27z"/>
<path d="M3255 1491 c-6 -19 3 -51 14 -51 4 0 5 16 3 35 -5 40 -8 43 -17 16z"/>
<path d="M2678 1473 c-3 -13 -2 -26 4 -29 14 -9 16 -2 8 26 -6 25 -6 25 -12 3z"/>
<path d="M2130 1450 c0 -5 5 -10 11 -10 5 0 7 5 4 10 -3 6 -8 10 -11 10 -2 0
-4 -4 -4 -10z"/>
<path d="M2230 1450 c0 -5 5 -10 11 -10 5 0 7 5 4 10 -3 6 -8 10 -11 10 -2 0
-4 -4 -4 -10z"/>
</g>
</svg>
